<svg xmlns="http://www.w3.org/2000/svg" viewBox="0 0 398.6 320.1"><defs><style>.cls-1{fill:#fff;opacity:0.6;}</style></defs><g id="Layer_2" data-name="Layer 2"><g id="Layer_1-2" data-name="Layer 1"><path class="cls-1" d="M199.55,177.05l-136,136a23.9,23.9,0,0,1-33.9,0l-22.6-22.6a23.9,23.9,0,0,1,0-33.9l96.4-96.4L7.05,63.75a23.9,23.9,0,0,1,0-33.9l22.5-22.8a23.9,23.9,0,0,1,33.9,0l136,136A23.93,23.93,0,0,1,199.55,177.05Zm192-34-136-136a23.9,23.9,0,0,0-33.9,0l-22.6,22.6a23.9,23.9,0,0,0,0,33.9l96.4,96.4-96.4,96.4a23.9,23.9,0,0,0,0,33.9l22.6,22.6a23.9,23.9,0,0,0,33.9,0l136-136a23.78,23.78,0,0,0,0-33.8Z"/></g></g></svg>